:version 1.10
:name ASF
:units
  mass 1
  length 1
  angle deg
:documentation
  ASF file generated by Kaydara
:root
  axis xyz
  order  tx ty tz rx ry rz
  position 0 0 0
  orientation 0 0 0
:bonedata
  begin
    id 1
    name RightUpLegDummy
    direction -0.718183 -0.695806 0.00816078
    length 4.904
    axis 0 0 0 xyz
  end
  begin
    id 2
    name RightUpLeg
    direction 3.53373e-006 -0.995788 0.0916898
    length 17.4976
    axis -3.49089 -0.000906625 0.000286804 xyz
    dof rx ry rz
  end
  begin
    id 3
    name RightLeg
    direction 0.00371092 -0.995096 -0.0988419
    length 16.5821
    axis 3.68512 0.0193738 -0.131023 xyz
    dof rx ry rz
  end
  begin
    id 4
    name RightFoot
    direction 0.00079151 -0.46099 0.887405
    length 3.77069
    axis 4.81691e-005 -0.120479 -0.188788 xyz
    dof rx ry rz
  end
  begin
    id 5
    name RightToes
    direction 0 0 0
    length 0
    axis 0 0 0 xyz
    dof rx ry rz
  end
  begin
    id 6
    name SpineDummy
    direction 8.3039e-015 1 4.57515e-016
    length 4.6813
    axis 0 0 0 xyz
  end
  begin
    id 7
    name Spine
    direction -3.15643e-008 0.999988 0.00495137
    length 10.1015
    axis -0.001389 0.000121418 2.40972e-006 xyz
    dof rx ry rz
  end
  begin
    id 8
    name Spine1
    direction 0 0 0
    length 0
    axis -0.001389 0.000121451 1.30017e-006 xyz
    dof rx ry rz
  end
  begin
    id 9
    name HEadDummy
    direction -1.99912e-008 0.999999 0.00127422
    length 3.43865
    axis -0.001389 0.000121451 1.30017e-006 xyz
  end
  begin
    id 10
    name HEad
    direction 0 0 0
    length 0
    axis 0 0 0 xyz
    dof rx ry rz
  end
  begin
    id 11
    name LeftShoulder1Dummy
    direction 0.998891 -0.0402509 -0.0244456
    length 3.5433
    axis -0.001389 0.000121451 1.30017e-006 xyz
  end
  begin
    id 12
    name LeftShoulder1
    direction 0.99951 -0.000327763 0.0313091
    length 4.05031
    axis -0.001389 0.000121451 1.30017e-006 xyz
    dof rx ry rz
  end
  begin
    id 13
    name LeftArm
    direction 0.998561 -0.00100056 -0.0536182
    length 10.3537
    axis -23.1894 0.134784 0.967509 xyz
    dof rx ry rz
  end
  begin
    id 14
    name LeftForeArm
    direction 0.998903 0.00866432 0.046012
    length 8.70632
    axis -9.91835 -0.06569 -0.177794 xyz
    dof rx ry rz
  end
  begin
    id 15
    name LeftHand
    direction 0 0 0
    length 0
    axis 0 0 0 xyz
    dof rx ry rz
  end
  begin
    id 16
    name RightShoulderDummy
    direction -0.998891 -0.0402509 -0.0244414
    length 3.5433
    axis -0.001389 0.000121451 1.30017e-006 xyz
  end
  begin
    id 17
    name RightShoulder
    direction -0.99951 -0.000327807 0.0313133
    length 4.05031
    axis 0.215806 0.000203643 -0.0068026 xyz
    dof rx ry rz
  end
  begin
    id 18
    name RightArm
    direction -0.998573 -0.000999564 -0.053403
    length 10.3947
    axis -23.2009 -0.134239 -0.964101 xyz
    dof rx ry rz
  end
  begin
    id 19
    name RightForeArm
    direction -0.998898 0.00868028 0.0461306
    length 8.68355
    axis -9.92322 0.0658061 0.178868 xyz
    dof rx ry rz
  end
  begin
    id 20
    name RightHand
    direction 0 0 0
    length 0
    axis 0 0 0 xyz
    dof rx ry rz
  end
  begin
    id 21
    name LeftUpLegDummy
    direction 0.718183 -0.695806 0.00816078
    length 4.904
    axis 0 0 0 xyz
  end
  begin
    id 22
    name LeftUpLeg
    direction -6.81752e-006 -0.995793 0.0916337
    length 17.4976
    axis -3.48766 0.00143442 -0.000524262 xyz
    dof rx ry rz
  end
  begin
    id 23
    name LeftLeg
    direction -0.00601358 -0.995091 -0.0987824
    length 16.5821
    axis 3.68178 -0.00654042 -0.000285133 xyz
    dof rx ry rz
  end
  begin
    id 24
    name LeftFoot
    direction -0.00417578 -0.460984 0.887399
    length 3.77069
    axis 1.87233e-006 4.66016e-005 -8.6538e-006 xyz
    dof rx ry rz
  end
  begin
    id 25
    name LeftToes
    direction 0 0 0
    length 0
    axis 0 0 0 xyz
    dof rx ry rz
  end
:hierarchy
  begin
    root RightUpLegDummy SpineDummy LeftUpLegDummy
    RightUpLegDummy RightUpLeg
    RightUpLeg RightLeg
    RightLeg RightFoot
    RightFoot RightToes
    SpineDummy Spine
    Spine Spine1
    Spine1 HEadDummy LeftShoulder1Dummy RightShoulderDummy
    HEadDummy HEad
    LeftShoulder1Dummy LeftShoulder1
    LeftShoulder1 LeftArm
    LeftArm LeftForeArm
    LeftForeArm LeftHand
    RightShoulderDummy RightShoulder
    RightShoulder RightArm
    RightArm RightForeArm
    RightForeArm RightHand
    LeftUpLegDummy LeftUpLeg
    LeftUpLeg LeftLeg
    LeftLeg LeftFoot
    LeftFoot LeftToes
  end

:SAMPLES-PER-SECOND 30
:FULLY-SPECIFIED
:DEGREES
152
root  11.4872 40.1291 8.93882 5.27135 69.2387 8.37083
RightUpLeg  -9.66056 -9.6879 -12.5966
RightLeg  9.28401 6.46007 0.899028
RightFoot  5.36273 -0.772267 5.50612
RightToes  0.000481921 0.542163 -0.142578
Spine  18.0883 -2.26619 -3.55971
Spine1  5.34688 -5.56012 10.7657
HEad  10.5639 27.1923 -13.9425
LeftShoulder1  4.90604 -12.1835 -25.0941
LeftArm  -23.6903 -5.76174 -30.0387
LeftForeArm  -151.087 -44.2674 -172.799
LeftHand  -0.25398 0.0180481 5.50724
RightShoulder  3.66064 9.16536 22.6587
RightArm  11.7955 27.1511 68.0403
RightForeArm  167.055 61.4748 161.525
RightHand  -1.89152 7.72872 -17.0553
LeftUpLeg  -1.8753 24.2301 2.85519
LeftLeg  15.9689 19.991 1.74029
LeftFoot  -5.7166 0.111005 -1.54386
LeftToes  1.06245e-005 4.65869e-005 -8.65517e-006
153
root  11.7879 40.2002 8.91335 6.11099 69.989 9.86346
RightUpLeg  -7.9186 -10.1316 -13.5483
RightLeg  8.52263 6.49693 0.730687
RightFoot  4.97137 -0.794456 5.77663
RightToes  0.000481921 0.542163 -0.142578
Spine  15.8447 -2.27666 -0.427489
Spine1  6.03997 -4.13609 6.49053
HEad  13.495 24.1823 -11.7253
LeftShoulder1  6.01134 -12.1009 -32.4885
LeftArm  -19.9046 0.101566 -32.3327
LeftForeArm  -156.806 -37.2138 -174.037
LeftHand  -0.25398 0.0180481 5.50724
RightShoulder  3.57916 9.0683 22.2072
RightArm  10.0999 27.8379 68.1461
RightForeArm  167.286 62.7413 160.584
RightHand  -1.57129 6.46672 -15.7194
LeftUpLeg  0.195475 18.6439 2.72179
LeftLeg  14.0187 24.8251 0.313994
LeftFoot  -5.48137 0.114369 -1.59226
LeftToes  1.06245e-005 4.65869e-005 -8.65517e-006
154
root  11.9061 40.1571 8.94522 7.23454 71.7626 11.839
RightUpLeg  -6.92354 -10.1957 -14.4199
RightLeg  9.88628 5.27073 0.513565
RightFoot  3.62336 -0.783402 6.14991
RightToes  0.000481921 0.542163 -0.142578
Spine  13.7429 -1.80282 2.80734
Spine1  7.2721 -2.24329 2.08684
HEad  15.8944 19.5704 -9.08645
LeftShoulder1  6.5008 -12.2445 -35.2183
LeftArm  -19.9333 1.45894 -35.8323
LeftForeArm  -168.71 -39.0816 -172.85
LeftHand  -0.25398 0.0180481 5.50724
RightShoulder  3.4565 8.77679 21.8649
RightArm  7.86708 28.9762 67.8943
RightForeArm  163.009 63.7396 159.328
RightHand  -1.52903 5.80771 -16.1404
LeftUpLeg  0.985256 19.1845 2.49974
LeftLeg  14.1378 22.5225 0.355892
LeftFoot  -5.87772 0.113667 -1.64103
LeftToes  1.06245e-005 4.65869e-005 -8.65517e-006
155
root  11.8248 39.9571 9.04688 9.19893 74.3917 14.6257
RightUpLeg  -7.27744 -9.37746 -15.117
RightLeg  13.9322 2.39003 0.146701
RightFoot  1.23159 -0.709669 6.51175
RightToes  0.000481921 0.542163 -0.142578
Spine  12.5164 -1.12832 5.1151
Spine1  8.13148 -0.500121 -1.16244
HEad  17.2499 14.6262 -6.93184
LeftShoulder1  6.49729 -12.6653 -34.1383
LeftArm  -19.4487 -0.204877 -39.6273
LeftForeArm  -175.938 -44.6313 -170.825
LeftHand  -0.25398 0.0180481 5.50724
RightShoulder  3.3541 8.484 21.6874
RightArm  5.82809 30.3644 67.8136
RightForeArm  161.052 64.5595 158.399
RightHand  -1.56468 5.68836 -16.6729
LeftUpLeg  -0.0705779 24.743 2.16258
LeftLeg  16.9248 14.311 2.12106
LeftFoot  -7.08179 0.104657 -1.67175
LeftToes  1.06245e-005 4.65869e-005 -8.65517e-006
156
root  11.5928 39.5856 9.22773 12.4105 77.3755 19.0572
RightUpLeg  -8.23365 -8.36202 -15.7886
RightLeg  19.8872 -0.848165 -0.522358
RightFoot  -1.79057 -0.578159 6.76475
RightToes  0.000481921 0.542163 -0.142578
Spine  13.1015 -0.625797 5.77819
Spine1  8.295 0.50874 -2.56769
HEad  17.1387 10.994 -6.19456
LeftShoulder1  6.45628 -13.232 -32.5373
LeftArm  -17.2275 -3.7709 -40.6278
LeftForeArm  -178.137 -48.6492 -169.323
LeftHand  -0.25398 0.0180481 5.50724
RightShoulder  3.35872 8.63151 21.3688
RightArm  4.6068 31.8671 68.3721
RightForeArm  164.924 64.8492 158.546
RightHand  -1.45547 5.49713 -15.8005
LeftUpLeg  -2.00775 27.6322 1.64149
LeftLeg  21.3795 8.14313 4.09051
LeftFoot  -8.87376 0.0917075 -1.79674
LeftToes  1.06245e-005 4.65869e-005 -8.65517e-006
157
root  11.3 39.1359 9.47825 18.4013 80.3309 27.0408
RightUpLeg  -8.39683 -8.44591 -16.4816
RightLeg  25.7744 -2.69855 -1.63862
RightFoot  -4.65886 -0.436635 6.92411
RightToes  0.000481921 0.542163 -0.142578
Spine  15.0248 -0.413731 4.82349
Spine1  8.78944 0.690784 -2.36031
HEad  15.6747 9.417 -6.7326
LeftShoulder1  6.39983 -13.5419 -31.5004
LeftArm  -15.1121 -8.71571 -39.5884
LeftForeArm  -177.748 -50.0295 -168.813
LeftHand  -0.25398 0.0180481 5.50724
RightShoulder  3.46881 9.25386 20.8458
RightArm  4.60563 33.7002 69.6805
RightForeArm  170.042 64.6653 159.258
RightHand  -1.27838 5.20916 -14.3096
LeftUpLeg  -2.96724 23.8468 1.7279
LeftLeg  26.0579 8.33566 4.75813
LeftFoot  -10.6156 0.0763202 -1.96897
LeftToes  1.06245e-005 4.65869e-005 -8.65517e-006
158
root  11.0605 38.799 9.75887 30.2654 82.8993 40.9117
RightUpLeg  -7.4632 -8.84346 -17.2048
RightLeg  29.6729 -4.12151 -2.76376
RightFoot  -6.66035 -0.331724 6.99284
RightToes  0.000481921 0.542163 -0.142578
Spine  16.5133 -0.309811 3.35446
Spine1  10.1162 0.567258 -1.78029
HEad  14.128 9.12437 -7.46521
LeftShoulder1  6.0468 -13.2097 -30.1166
LeftArm  -13.6195 -14.0216 -40.1569
LeftForeArm  -175.974 -50.6933 -168.672
LeftHand  -0.25398 0.0180481 5.50724
RightShoulder  3.65757 9.85043 21.0528
RightArm  5.54625 34.8829 71.0839
RightForeArm  172.859 64.1895 159.965
RightHand  -1.17345 5.10291 -13.302
LeftUpLeg  -2.92778 21.456 1.95726
LeftLeg  28.9106 7.39057 4.75077
LeftFoot  -11.5818 0.065366 -1.98174
LeftToes  1.06245e-005 4.65869e-005 -8.65517e-006
159
root  10.963 38.724 10.0184 49.6743 84.6992 61.1219
RightUpLeg  -6.26299 -9.96386 -17.5458
RightLeg  30.7491 -5.13181 -3.52253
RightFoot  -7.47178 -0.284353 6.9022
RightToes  0.000481921 0.542163 -0.142578
Spine  16.3548 -0.175566 2.72246
Spine1  11.4125 0.738713 -1.97458
HEad  14.1036 8.87685 -7.68407
LeftShoulder1  5.61334 -12.4874 -29.0358
LeftArm  -11.38 -17.9853 -42.9989
LeftForeArm  -173.149 -51.459 -168.562
LeftHand  -0.25398 0.0180481 5.50724
RightShoulder  3.97111 10.134 22.8928
RightArm  6.53848 33.1797 71.6251
RightForeArm  175.663 63.0853 161.136
RightHand  -1.11485 5.18795 -12.5644
LeftUpLeg  -2.82745 19.5623 1.99427
LeftLeg  29.3315 6.53932 4.31592
LeftFoot  -11.4298 0.0669506 -1.89602
LeftToes  1.06245e-005 4.65869e-005 -8.65517e-006
